<svg id="Layer_1" data-name="Layer 1" xmlns="http://www.w3.org/2000/svg" viewBox="0 0 148.31 59.45"><defs><style>.cls-1,.cls-2,.cls-3{fill:#27387a;}.cls-1{stroke:#27387a;stroke-miterlimit:10;stroke-width:0.5px;}.cls-3{isolation:isolate;font-size:4.88px;font-family:Helvetica;}</style></defs><title>unbound-logo</title><path class="cls-1" d="M242.2,415.2a57.82,57.82,0,0,1,1.2-5.7,36.11,36.11,0,0,1,1.7-4.6,3.42,3.42,0,0,0,.4-1.8c-.4-.1-.6.4-.8.7-1.2,1.5-2.3,3-3.6,4.5a49.17,49.17,0,0,1-6.6,6.3c-.7.5-1.4,1-2.2,1.5a3.17,3.17,0,0,1-1.6.4,2.47,2.47,0,0,1-2.8-2,11,11,0,0,1-.4-3.1,28,28,0,0,1,.9-5.8,81.74,81.74,0,0,1,12.2-25.2c.5-.7.6-1.9,1.1-2.5,1.2-1.2,2.3-2.2,3-.8.3.1.3,1.2,0,1.5-4.6,5.3-7.7,11.4-10.3,18a92.52,92.52,0,0,0-3.2,8.8,22,22,0,0,0-1.2,6.1,6.92,6.92,0,0,0,.4,3.5.69.69,0,0,0,.8.5.35.35,0,0,0,.2-.1,11.78,11.78,0,0,0,1.9-1.1,45.34,45.34,0,0,0,5.7-5,98.35,98.35,0,0,0,8.9-11.3,16.18,16.18,0,0,0,1-1.8,164.16,164.16,0,0,1,8.6-16,34.57,34.57,0,0,1,2.2-3.1,2.26,2.26,0,0,1,1.5-1,.84.84,0,0,1,.7.2.75.75,0,0,1,.1.8,8,8,0,0,1-.8,1.6c-1.2,2.1-2.3,4.2-3.6,6.2a89.76,89.76,0,0,0-6.7,13.1,78.39,78.39,0,0,0-4.6,12,51.51,51.51,0,0,0-1.5,5.3c-.5,2.6.9,4.8,5.1,3.3,1.9-.7,2.1.3.1,1-3.4,1.2-5,.7-6.2-.5A4.22,4.22,0,0,1,242.2,415.2Zm3.6-12.4c-.1,0-.1-.1-.2-.1s-.1.2-.1.3c.1-.1.2-.2.3-.2Z" transform="translate(-227.25 -375.05)"/><path class="cls-1" d="M262.5,409.3c.8-1.8,1.8-3.6,2.6-5.4.3-.6.5-1.1.8-1.8.4-1.1-.7-.4-1.6.5a29.51,29.51,0,0,0-5.2,6,15.45,15.45,0,0,1-1.9,2.4c-1.3,1.3-2.9.9-3.2-.5a5.71,5.71,0,0,1,0-2.6,21.16,21.16,0,0,1,2.9-7.7,5.55,5.55,0,0,0,.6-.8,1.61,1.61,0,0,1,1.3-.6c.3,0,.7-.1,1,.2s-.1.7-.2,1a18,18,0,0,0-2.9,6.8c-.4,1.7-1.1,4.7.3,3.2a23.48,23.48,0,0,0,1.9-2.5,38.5,38.5,0,0,1,6-6.1c1.4-1.1,2.8-1.1,3,.1a4.29,4.29,0,0,1-.4,2.5l-2,4.2c-1.6,2.9-3,6.9-1.3,6.6.5-.2,1.1-.4,1.6-.6a15.65,15.65,0,0,0,3.4-2.3,51.81,51.81,0,0,0,5.4-5.1c.8-.8,1.6-1.7,2.4-2.6.2-.2.3-.4.7-.4a1.07,1.07,0,0,1-.2.6,49.82,49.82,0,0,1-7.9,8,15.21,15.21,0,0,1-3.8,2.4,6,6,0,0,1-2.4.5C260.4,415,261.1,412.1,262.5,409.3Z" transform="translate(-227.25 -375.05)"/><path class="cls-1" d="M281.4,398.7a90.07,90.07,0,0,0-3.1,11.3.76.76,0,0,0,.1.4c.4,0,.5-.4.7-.7a72.63,72.63,0,0,1,4.5-6.8,18.53,18.53,0,0,1,2.8-2.8,5.38,5.38,0,0,1,2-1,1.87,1.87,0,0,1,2.3,1.1,1.48,1.48,0,0,1,.1.7,8.42,8.42,0,0,1-.4,2.7,5,5,0,0,0-.2,1.2l.1.1a.78.78,0,0,0,.8-.2l4.6-2c.8-.4,1-.1.8.1l-2.5,1.3c-1.1.5-2.3,1-3.4,1.5a2.1,2.1,0,0,0-1.3,1.3,37.17,37.17,0,0,1-2.7,4.8,37.62,37.62,0,0,1-2.5,3.1,11.38,11.38,0,0,1-2.5,1.8,3.85,3.85,0,0,1-2.4.4,1.49,1.49,0,0,1-1.4-1.3v-.3a1.27,1.27,0,0,1,.1-.6c-1.6.2-1.6.2-1.6-1.4a53.88,53.88,0,0,1,6.3-21.9,79.41,79.41,0,0,1,7.6-12.1,12.93,12.93,0,0,1,3.6-3.4,3.41,3.41,0,0,1,2.2-.7c.8.1,1.2.4,1.3,1.1a4.34,4.34,0,0,1-.5,2.5c-.4,1.1-.9,2.2-1.4,3.3a45.87,45.87,0,0,1-8.4,11.6,26.44,26.44,0,0,1-4.1,3.4A2.06,2.06,0,0,0,281.4,398.7Zm-3.7,14.9c-.2.4-.4.7-.2,1.1a14.72,14.72,0,0,1,5.2-5.6,32.07,32.07,0,0,1,3.1-1.9,2.28,2.28,0,0,0,.9-.8,16.69,16.69,0,0,0,1.5-5.4c.1-.5-.2-.7-.7-.5a14.71,14.71,0,0,0-3.5,3.1,49.12,49.12,0,0,0-4.8,7.1,19.68,19.68,0,0,0-1.5,2.9Zm7.9-5.3a14.27,14.27,0,0,0-6.2,5.2,4.59,4.59,0,0,0-.7,1.6v.7a.55.55,0,0,0,.6.4h.1a3.59,3.59,0,0,0,1-.7,22.84,22.84,0,0,0,5.2-7.2Zm-2.7-11.8c.1-.4.5-.6.8-.8a46.21,46.21,0,0,0,10.7-13.4,15.21,15.21,0,0,0,1.6-4.2,3.33,3.33,0,0,0,.1-1.4.51.51,0,0,0-.4-.5.37.37,0,0,0-.3.1,2.18,2.18,0,0,0-.5.4,20.64,20.64,0,0,0-2.8,3.1,92.74,92.74,0,0,0-7.5,12c-.6,1.1-1.1,2.4-1.7,3.5a.91.91,0,0,0,0,1.2Z" transform="translate(-227.25 -375.05)"/><path class="cls-1" d="M293.5,410.1a2.91,2.91,0,0,0,.5-2.2,5,5,0,0,1,.4-2.7,15,15,0,0,1,2.2-3.9c3.4-4,6.5-1.5,5.2,3.9a20.06,20.06,0,0,1-1.6,4.3c-1.8,2.9,3.7-1.5,9.6-6.1,1.7.1-7.7,7.1-9.9,8a1.94,1.94,0,0,0-1.4.9c-1.3,1.9-2.5,2.9-4,2.9C291.6,415.2,292.1,412.3,293.5,410.1Zm4.2,1.6a3.83,3.83,0,0,1-1.1-.5c-1.2-.4-1.2-.4-1.6.8a3.92,3.92,0,0,0-.4,1.8.46.46,0,0,0,.5.4h.1A6.67,6.67,0,0,0,297.7,411.7Zm.9-1.3a19.23,19.23,0,0,0,1.8-3.1,15.34,15.34,0,0,0,1.1-4.7c0-1.7-1-3.2-2.5-2.2a5,5,0,0,0-1.4,1.5,12.39,12.39,0,0,0-1.7,5,1.28,1.28,0,0,0,.5,1.5c.3.1.2.4.1.6a.65.65,0,0,0,.2.9c.3.3.6.5.9.8a.75.75,0,0,0,.9,0c.1-.2.1-.2.1-.3Z" transform="translate(-227.25 -375.05)"/><path class="cls-1" d="M305.7,412.7a28.88,28.88,0,0,1,3.5-8.7,10.92,10.92,0,0,1,1.3-1.7,1.43,1.43,0,0,1,1.2-.6,1,1,0,0,1,1,.2c.3.3,0,.7-.2.9a32.76,32.76,0,0,0-5,11.5c-.4,1.9-.5,2.6,1,1.7a15.81,15.81,0,0,0,2.9-2.2,22.06,22.06,0,0,0,2.9-3.2l2.9-4.1a13.41,13.41,0,0,0,2.3-4l.9-1.8a1.45,1.45,0,0,1,1-.7.8.8,0,0,1,1,1,9.5,9.5,0,0,1-.6,1.8c-2.8,7.5-6.3,13.9-.9,11.5a15.65,15.65,0,0,0,3.4-2.3,43,43,0,0,0,5.4-5.1c.8-.8,1.6-1.7,2.4-2.6.2-.2.3-.4.7-.4a1.07,1.07,0,0,1-.2.6,49.82,49.82,0,0,1-7.9,8,15.21,15.21,0,0,1-3.8,2.4c-5.6,2.4-5.5-2-3.1-7.8a40.56,40.56,0,0,1-5.7,7.4,15.81,15.81,0,0,1-2.9,2.2C305.8,418.2,304.8,415.8,305.7,412.7Z" transform="translate(-227.25 -375.05)"/><path class="cls-1" d="M339.6,409.3c.8-1.8,1.8-3.6,2.6-5.4.3-.6.5-1.1.8-1.8.4-1.1-.7-.4-1.6.5a29.51,29.51,0,0,0-5.2,6,15.45,15.45,0,0,1-1.9,2.4c-1.3,1.3-3,.9-3.3-.5a5.71,5.71,0,0,1,0-2.6,21.86,21.86,0,0,1,2.9-7.7,5.55,5.55,0,0,0,.6-.8,1.61,1.61,0,0,1,1.3-.6c.3,0,.7-.1,1,.2s-.1.7-.2,1a18.68,18.68,0,0,0-2.9,6.8c-.4,1.7-1.1,4.7.3,3.2a23.48,23.48,0,0,0,1.9-2.5,43.25,43.25,0,0,1,6-6.1c1.4-1.1,2.8-1.1,3,.1a4.29,4.29,0,0,1-.4,2.5l-2,4.2c-1.6,2.9-3,6.9-1.3,6.6.5-.2,1.1-.4,1.6-.6a15.65,15.65,0,0,0,3.4-2.3,43,43,0,0,0,5.4-5.1c.8-.8,1.6-1.7,2.4-2.6.2-.2.3-.4.7-.4a1.07,1.07,0,0,1-.2.6,49.82,49.82,0,0,1-7.9,8,15.21,15.21,0,0,1-3.8,2.4,6,6,0,0,1-2.4.5C337.5,415,338.1,412.1,339.6,409.3Z" transform="translate(-227.25 -375.05)"/><path class="cls-1" d="M359.8,412.5c-5.8,4.7-10.9,6.8-10,2.1,1-8.3,10.2-21.1,13.5-10,.5,0,.8-.5,1.1-.8.7-1.1,2.3-1.1,1.8-.3C363.9,407.6,362.4,410.1,359.8,412.5Zm1.1-2.8a6.85,6.85,0,0,0,1.7-4.1,4.6,4.6,0,0,0-1.6-3.8,1.5,1.5,0,0,0-1.9-.1c-2.7,1.9-8.9,10.9-7.6,13.9.6,1.1,5.7-2.4,9.4-5.9Z" transform="translate(-227.25 -375.05)"/><path class="cls-1" d="M362.5,407.2c.5-.7.2-2.2.3-3,.3-2.7.8-5.5,1.3-8.1a86.53,86.53,0,0,1,3.8-13.2,24.2,24.2,0,0,1,3.1-5.7c.4-.5.8-.9,1.2-1.4a1.3,1.3,0,0,1,1.9.1l.1.1a4,4,0,0,1,1,2.3,11.5,11.5,0,0,1-.1,3.7,32.81,32.81,0,0,1-1.8,6.1,132.9,132.9,0,0,1-6.1,13.9c-1.7,3.4-4.2,6.2-6.3,9.4C360.5,411.9,359.8,411.3,362.5,407.2Zm1-3.8c-.3,1.8,1.5-1.5,2.1-2.9,2.4-4.7,4.5-9.5,6.4-14.3a29.85,29.85,0,0,0,1.9-7.1,10.87,10.87,0,0,0,.1-1.8.57.57,0,0,0-.4-.7c-.3-.2-.5,0-.8.2a5.36,5.36,0,0,0-1.5,1.5,21.16,21.16,0,0,0-2.7,4.9c-.9,2.3-1.6,4.6-2.3,7a90.65,90.65,0,0,0-2.5,11.5,4.67,4.67,0,0,0-.3,1.7Z" transform="translate(-227.25 -375.05)"/><path class="cls-1" d="M363.2,411.5a40,40,0,0,0,.8,4.8c0,.2,0,.5.4.4.2-.3.1-.5,0-.8-.8-5-.5-5.7-.8-10.7l-.1-.6-.7-1.2C362.9,406,363,408.7,363.2,411.5Z" transform="translate(-227.25 -375.05)"/><g id="Layer_5" data-name="Layer 5"><path class="cls-2" d="M239.7,426.4h2.6a1.92,1.92,0,0,1,2.1,1.7v.3a1.76,1.76,0,0,0,0,3.4,2.56,2.56,0,0,1-2.5,2.6h-3.6Zm1.8,6.5a1.06,1.06,0,0,0,1.2-1v-.2a.92.92,0,0,0-.9-1h-1.4L240,433Zm.4-3.6c.4.1.8-.3.9-.7v-.1a.68.68,0,0,0-.7-.7H241l-.3,1.6h1.2Zm5.7-3h5.1l-.2,1.4H249l-.4,2.6h3.1l-.2,1.4h-3.1l-.2,1.2h3.7l-.2,1.4h-5.3Zm7.4,8h-1.6l4.8-8h.1l2.1,8h-1.6l-.2-.9h-3.1Zm3-3.6a5.85,5.85,0,0,1-.2-1.3c-.2.5-.4.9-.6,1.3l-.9,1.5h2Zm4.5.5.8-4.8h1.6l-.9,4.9c-.2,1.1.3,1.7,1.4,1.7s1.5-.5,1.7-1.6l.9-5.1h1.6l-.9,5.3a3,3,0,0,1-3.3,2.7,2.7,2.7,0,0,1-3-2.3,2.49,2.49,0,0,1,.1-.8Zm11.1-3.4h-2.2l.2-1.4h6l-.2,1.4h-2.2l-1.2,6.6h-1.6Zm5.7-1.4H281l.9,2.6a7.49,7.49,0,0,1,.4,1.6,11.94,11.94,0,0,1,.8-1.6l1.8-2.6h1.7l-3.7,5.4-.5,2.6h-1.6l.4-2.5Zm12.6,0h1.6l-1.4,8h-1.6Zm5.9,4.1a6.73,6.73,0,0,1-.7-1.1c0,.5-.1,1-.1,1.5l-.6,3.5h-1.5l1.4-8h.1l3.2,3.9a6.73,6.73,0,0,1,.7,1.1,12.42,12.42,0,0,1,.1-1.5l.6-3.5h1.5l-1.4,8H301Zm10.6-4.2h.1l3,4.3,4.6-4.3h.1l-1.4,8h-1.6l.5-3,.3-1.5a10.59,10.59,0,0,1-1,1.2l-1.8,1.8h-.1l-1.2-1.8a10.38,10.38,0,0,1-.7-1.2s-.1.9-.2,1.5l-.5,3H307Zm9.3,4.2a4.1,4.1,0,0,1,3.9-4.2h.3a3.71,3.71,0,0,1,3.8,3.7v.3a4,4,0,0,1-3.9,4.2h-.3a3.8,3.8,0,0,1-3.9-3.7.37.37,0,0,0,.1-.3Zm6.4-.3a2.39,2.39,0,0,0-2-2.5h-.2a2.48,2.48,0,0,0-2.5,2.5v.3a2.39,2.39,0,0,0,2,2.5h.3a2.56,2.56,0,0,0,2.5-2.6c-.1,0-.1-.1-.1-.2Zm5.6-2.4h-2.2l.2-1.4h6l-.2,1.4h-2.2l-1.1,6.6h-1.6Zm6.1-1.4h1.6l-1.4,8h-1.6Zm3.1,4.1a4,4,0,0,1,3.9-4.2h.3a3.71,3.71,0,0,1,3.8,3.7v.3a4.05,4.05,0,0,1-4,4.2h-.2a3.8,3.8,0,0,1-3.9-3.7.37.37,0,0,0,.1-.3Zm6.4-.3a2.39,2.39,0,0,0-2-2.5h-.2a2.5,2.5,0,0,0-2.5,2.8,2.39,2.39,0,0,0,2,2.5h.3c1.4,0,2.4-1.1,2.4-2.8Zm6.2.3a6.73,6.73,0,0,1-.7-1.1c0,.5-.1,1-.1,1.5l-.6,3.5h-1.5l1.4-8h.1l3.2,3.9a6.73,6.73,0,0,1,.7,1.1,12.42,12.42,0,0,1,.1-1.5l.6-3.5h1.5l-1.4,8h-.1Z" transform="translate(-227.25 -375.05)"/></g><text class="cls-3" transform="translate(140.05 37.54) scale(1.06 1)">®</text></svg>